<svg width="20" height="20" viewBox="0 0 301 301" fill="none" xmlns="http://www.w3.org/2000/svg">
<g clip-path="url(#clip0_447_205)">
<path d="M208.385 127.346C208.385 105.036 200.456 85.9526 184.598 70.0947C168.74 54.2367 149.656 46.3077 127.346 46.3077C105.036 46.3077 85.9526 54.2367 70.0947 70.0947C54.2367 85.9526 46.3077 105.036 46.3077 127.346C46.3077 149.656 54.2367 168.74 70.0947 184.598C85.9526 200.456 105.036 208.385 127.346 208.385C149.656 208.385 168.74 200.456 184.598 184.598C200.456 168.74 208.385 149.656 208.385 127.346ZM301 277.846C301 284.117 298.709 289.544 294.126 294.126C289.544 298.709 284.117 301 277.846 301C271.334 301 265.907 298.709 261.566 294.126L199.521 232.262C177.935 247.216 153.877 254.692 127.346 254.692C110.101 254.692 93.6103 251.346 77.8729 244.653C62.1355 237.96 48.5688 228.916 37.1728 217.52C25.7767 206.124 16.7323 192.557 10.0394 176.819C3.34645 161.082 0 144.591 0 127.346C0 110.101 3.34645 93.6103 10.0394 77.8729C16.7323 62.1355 25.7767 48.5688 37.1728 37.1728C48.5688 25.7767 62.1355 16.7323 77.8729 10.0394C93.6103 3.34645 110.101 0 127.346 0C144.591 0 161.082 3.34645 176.819 10.0394C192.557 16.7323 206.124 25.7767 217.52 37.1728C228.916 48.5688 237.96 62.1355 244.653 77.8729C251.346 93.6103 254.692 110.101 254.692 127.346C254.692 153.877 247.216 177.935 232.262 199.521L294.307 261.566C298.769 266.028 301 271.455 301 277.846Z" fill="black"/>
</g>
<defs>
<clipPath id="clip0_447_205">
<rect width="301" height="301" fill="black"/>
</clipPath>
</defs>
</svg>
